<svg width="32" height="32" viewBox="0 0 32 32" fill="none" xmlns="http://www.w3.org/2000/svg">
  <defs>
    <linearGradient id="bg32" x1="4" y1="4" x2="28" y2="28" gradientUnits="userSpaceOnUse">
      <stop stop-color="#0EA5E9"/>
      <stop offset="1" stop-color="#0B4F79"/>
    </linearGradient>
  </defs>
  <circle cx="16" cy="16" r="16" fill="url(#bg32)"/>
  <rect x="7.5" y="8.5" width="17" height="12" rx="2.5" fill="#F8FBFF" stroke="#0EA5E9" stroke-width="1.5"/>
  <rect x="7.5" y="8.5" width="17" height="4" rx="2.5" fill="#0EA5E9" opacity="0.9"/>
  <line x1="10" y1="6.5" x2="10" y2="10" stroke="#F8FBFF" stroke-width="2" stroke-linecap="round"/>
  <line x1="22" y1="6.5" x2="22" y2="10" stroke="#F8FBFF" stroke-width="2" stroke-linecap="round"/>
  <circle cx="21.5" cy="17.5" r="1.4" fill="#0EA5E9"/>
  <path d="M14.5 12c1.8 0 3.2 1.4 3.2 3.6 0 1.3-.3 2.7-.8 4.2-.5 1.5-1 3-1.8 3-1 0-1.4-2-2.2-2s-1.2 2-2.2 2c-.8 0-1.3-1.5-1.8-3-0.5-1.5-0.8-2.9-0.8-4.2 0-2.2 1.4-3.6 3.2-3.6h3.2z" fill="#F8FBFF" stroke="#0EA5E9" stroke-width="1.2" stroke-linejoin="round"/>
</svg>
