<svg width="64" height="64" viewBox="0 0 64 64" fill="none" xmlns="http://www.w3.org/2000/svg">
  <defs>
    <linearGradient id="fav" x1="0%" y1="0%" x2="100%" y2="100%">
      <stop offset="0%" stop-color="#06B6D4"/>
      <stop offset="100%" stop-color="#0EA5E9"/>
    </linearGradient>
  </defs>

  <rect width="64" height="64" rx="14" fill="url(#fav)"/>

  <!-- D -->
  <path d="M 16 14
           L 33 14
           C 50 14, 54 24, 54 32
           C 54 40, 50 50, 33 50
           L 16 50
           L 16 14 Z"
        fill="#FFFFFF"/>

  <!-- Diente -->
  <path d="M 35 21
           C 42 21, 46 26, 46 31
           C 46 35, 44 39, 42 42
           C 41 44, 40 45, 38 45
           C 36 45, 35 41, 35 41
           C 35 41, 34 45, 32 45
           C 30 45, 29 44, 28 42
           C 26 39, 24 35, 24 31
           C 24 26, 28 21, 35 21 Z"
        fill="#06B6D4"
        stroke="#FFFFFF"
        stroke-width="1.5"/>
</svg>
