<svg width="64" height="64" viewBox="0 0 64 64" fill="none" xmlns="http://www.w3.org/2000/svg">
  <defs>
    <linearGradient id="faviconGrad" x1="0%" y1="0%" x2="100%" y2="100%">
      <stop offset="0%" stop-color="#0EA5E9"/>
      <stop offset="100%" stop-color="#0284C7"/>
    </linearGradient>
  </defs>

  <!-- Fondo -->
  <rect width="64" height="64" rx="14" fill="url(#faviconGrad)"/>

  <!-- Diente con cruz -->
  <path d="M32 16
           C40 16, 46 22, 46 30
           C46 36, 44 42, 42 47
           C40 52, 38 54, 35 54
           C33 54, 32 48, 32 48
           C32 48, 31 54, 29 54
           C26 54, 24 52, 22 47
           C20 42, 18 36, 18 30
           C18 22, 24 16, 32 16Z"
        fill="#FFFFFF"/>

  <!-- Cruz médica -->
  <g transform="translate(32, 35)">
    <rect x="-1" y="-5" width="2" height="10" rx="0.5" fill="#0EA5E9"/>
    <rect x="-5" y="-1" width="10" height="2" rx="0.5" fill="#0EA5E9"/>
  </g>
</svg>
