<svg width="512" height="512" viewBox="0 0 512 512" fill="none" xmlns="http://www.w3.org/2000/svg">
  <defs>
    <linearGradient id="bg" x1="80" y1="80" x2="440" y2="440" gradientUnits="userSpaceOnUse">
      <stop stop-color="#0EA5E9"/>
      <stop offset="1" stop-color="#0B4F79"/>
    </linearGradient>
    <linearGradient id="tooth" x1="0" y1="0" x2="0" y2="1">
      <stop stop-color="#F8FBFF"/>
      <stop offset="1" stop-color="#E3ECF5"/>
    </linearGradient>
  </defs>

  <!-- Fondo circular -->
  <circle cx="256" cy="256" r="240" fill="url(#bg)"/>
  <circle cx="256" cy="256" r="216" fill="#E0F2FE" opacity="0.15"/>

  <!-- Calendario -->
  <g transform="translate(112 112)">
    <rect x="0" y="24" width="288" height="224" rx="30" fill="#F8FBFF" stroke="#0EA5E9" stroke-width="10"/>
    <rect x="0" y="24" width="288" height="60" rx="30" fill="#0EA5E9" opacity="0.95"/>
    <line x1="48" y1="0" x2="48" y2="44" stroke="#F8FBFF" stroke-width="14" stroke-linecap="round"/>
    <line x1="240" y1="0" x2="240" y2="44" stroke="#F8FBFF" stroke-width="14" stroke-linecap="round"/>
    <g stroke="#D7E6F3" stroke-width="2">
      <line x1="48" y1="104" x2="240" y2="104"/>
      <line x1="48" y1="146" x2="240" y2="146"/>
      <line x1="48" y1="188" x2="240" y2="188"/>
      <line x1="80" y1="88" x2="80" y2="204"/>
      <line x1="144" y1="88" x2="144" y2="204"/>
      <line x1="208" y1="88" x2="208" y2="204"/>
    </g>
    <circle cx="208" cy="188" r="12" fill="#0EA5E9"/>
  </g>

  <!-- Diente -->
  <g transform="translate(186 208)">
    <path d="M70 0c34 0 60 26 60 66 0 24-6 50-14 74-8 26-15 48-26 48-14 0-19-32-32-32-12 0-17 32-32 32-12 0-19-22-27-48C21 116 14 90 14 66 14 26 40 0 74 0h-4z" fill="url(#tooth)" stroke="#0EA5E9" stroke-width="8" stroke-linecap="round" stroke-linejoin="round"/>
    <path d="M78 40c-10 10-22 14-34 12" stroke="#0EA5E9" stroke-width="6" stroke-linecap="round"/>
  </g>

  <!-- Marca -->
  <text x="256" y="432" font-family="Plus Jakarta Sans, Arial, sans-serif" font-size="54" font-weight="700" fill="#F8FBFF" text-anchor="middle" letter-spacing="2">DENTIFY</text>
</svg>
