<svg width="512" height="512" viewBox="0 0 512 512" fill="none" xmlns="http://www.w3.org/2000/svg">
  <defs>
    <linearGradient id="bg" x1="0%" y1="0%" x2="100%" y2="100%">
      <stop offset="0%" stop-color="#06B6D4"/>
      <stop offset="100%" stop-color="#0EA5E9"/>
    </linearGradient>
  </defs>

  <!-- Fondo circular -->
  <circle cx="256" cy="256" r="256" fill="url(#bg)"/>

  <!-- Letra D con el diente calado como negativo -->
  <path d="M 140 120
           L 250 120
           C 350 120, 390 180, 390 256
           C 390 332, 350 392, 250 392
           L 140 392
           Z
           M 278 200
           C 308 200, 330 222, 330 250
           C 330 276, 325 302, 320 320
           C 315 338, 309 350, 296 350
           C 288 350, 284 326, 282 326
           C 280 326, 276 350, 266 350
           C 254 350, 249 338, 244 320
           C 239 302, 234 276, 234 250
           C 234 222, 248 200, 278 200
           Z"
        fill="#FFFFFF"
        stroke="#FFFFFF"
        stroke-width="6"
        stroke-linejoin="round"
        fill-rule="evenodd"
        clip-rule="evenodd"/>
</svg>
