<svg width="512" height="512" viewBox="0 0 512 512" fill="none" xmlns="http://www.w3.org/2000/svg">
  <defs>
    <linearGradient id="bg" x1="0%" y1="0%" x2="100%" y2="100%">
      <stop offset="0%" stop-color="#06B6D4"/>
      <stop offset="100%" stop-color="#0EA5E9"/>
    </linearGradient>
  </defs>

  <!-- Fondo circular -->
  <circle cx="256" cy="256" r="256" fill="url(#bg)"/>

  <!-- Letra D con forma de diente integrada -->
  <path d="M 140 120
           L 240 120
           C 360 120, 400 180, 400 256
           C 400 332, 360 392, 240 392
           L 140 392
           Z
           M 258 190
           C 293 190, 323 215, 323 250
           C 323 273, 320 295, 316 313
           C 312 325, 308 333, 302 340
           C 298 344, 294 347, 289 349
           C 285 351, 282 350, 280 348
           C 278 346, 276 342, 275 337
           L 273 330
           C 272 327, 270 325, 267 324
           C 264 323, 262 324, 261 326
           L 260 330
           L 258 337
           C 257 342, 255 346, 253 348
           C 251 350, 248 351, 244 349
           C 239 347, 235 344, 231 340
           C 225 333, 221 325, 217 313
           C 213 295, 210 273, 210 250
           C 210 215, 223 190, 258 190
           Z"
        fill="#FFFFFF"
        stroke="#FFFFFF"
        stroke-width="6"
        stroke-linejoin="round"
        fill-rule="evenodd"
        clip-rule="evenodd"/>
</svg>
