<svg width="256" height="256" viewBox="0 0 256 256" fill="none" xmlns="http://www.w3.org/2000/svg">
  <defs>
    <linearGradient id="iconBg" x1="0%" y1="0%" x2="100%" y2="100%">
      <stop offset="0%" stop-color="#06B6D4"/>
      <stop offset="100%" stop-color="#0EA5E9"/>
    </linearGradient>
  </defs>

  <!-- Fondo redondeado -->
  <rect width="256" height="256" rx="60" fill="url(#iconBg)"/>

  <!-- D grande -->
  <path d="M 65 55
           L 130 55
           C 190 55, 210 95, 210 128
           Q 210 161, 190 201
           L 130 201
           L 65 201
           L 65 55 Z"
        fill="#FFFFFF"/>

  <!-- Diente -->
  <path d="M 140 85
           C 160 85, 175 100, 175 120
           C 175 135, 172 150, 168 163
           C 165 176, 162 182, 155 182
           C 149 182, 147 168, 146 168
           C 145 168, 143 182, 137 182
           C 130 182, 127 176, 124 163
           C 120 150, 117 135, 117 120
           C 117 100, 132 85, 152 85
           L 140 85 Z"
        fill="#06B6D4"
        stroke="#FFFFFF"
        stroke-width="2"/>
</svg>
