<svg width="256" height="256" viewBox="0 0 256 256" fill="none" xmlns="http://www.w3.org/2000/svg">
  <defs>
    <linearGradient id="iconBg" x1="0%" y1="0%" x2="100%" y2="100%">
      <stop offset="0%" stop-color="#06B6D4"/>
      <stop offset="100%" stop-color="#0EA5E9"/>
    </linearGradient>
  </defs>

  <!-- Fondo redondeado -->
  <rect width="256" height="256" rx="60" fill="url(#iconBg)"/>

  <!-- D con forma de diente integrada -->
  <path d="M 60 50
           L 125 50
           C 195 50, 215 90, 215 128
           C 215 166, 195 206, 125 206
           L 60 206
           Z
           M 138 87
           C 157 87, 175 103, 175 125
           C 175 138, 173 151, 170 162
           C 167 169, 165 174, 162 178
           C 160 181, 158 183, 155 184
           C 153 185, 151 184, 150 183
           C 149 181, 148 179, 147 176
           L 146 172
           C 145 170, 144 168, 142 167
           C 140 166, 138 167, 137 169
           L 136 172
           L 135 176
           C 134 179, 133 181, 132 183
           C 131 184, 129 185, 127 184
           C 124 183, 122 181, 120 178
           C 118 174, 116 169, 113 162
           C 110 151, 108 138, 108 125
           C 108 103, 119 87, 138 87
           Z"
        fill="#FFFFFF"
        stroke="#FFFFFF"
        stroke-width="4"
        stroke-linejoin="round"
        fill-rule="evenodd"
        clip-rule="evenodd"/>
</svg>
