<svg width="256" height="256" viewBox="0 0 256 256" fill="none" xmlns="http://www.w3.org/2000/svg">
  <defs>
    <linearGradient id="iconMainGrad" x1="0%" y1="0%" x2="100%" y2="100%">
      <stop offset="0%" stop-color="#06B6D4"/>
      <stop offset="100%" stop-color="#0284C7"/>
    </linearGradient>

    <linearGradient id="iconWhite" x1="50%" y1="0%" x2="50%" y2="100%">
      <stop offset="0%" stop-color="#FFFFFF"/>
      <stop offset="100%" stop-color="#F8FAFC"/>
    </linearGradient>
  </defs>

  <!-- Fondo -->
  <rect width="256" height="256" rx="60" fill="url(#iconMainGrad)"/>

  <!-- Círculo decorativo -->
  <circle cx="128" cy="128" r="95" fill="none" stroke="#FFFFFF" stroke-width="1" opacity="0.1"/>

  <!-- D con diente -->
  <g>
    <path d="M 80 70
             L 120 70
             Q 176 70, 176 128
             Q 176 186, 120 186
             L 80 186
             L 80 70 Z"
          fill="url(#iconWhite)"
          stroke="#FFFFFF"
          stroke-width="6"
          stroke-linejoin="round"/>

    <path d="M 120 95
             C 138 95, 151 108, 151 125
             C 151 138, 149 150, 146 160
             C 143 170, 140 175, 133 175
             C 127 175, 126 162, 125 162
             C 124 162, 123 175, 117 175
             C 110 175, 107 170, 104 160
             C 101 150, 99 138, 99 125
             C 99 108, 112 95, 130 95
             L 120 95 Z"
          fill="url(#iconMainGrad)"
          opacity="0.95"/>
  </g>
</svg>
